<?xml version="1.0" encoding="UTF-8"?>
<svg width="577px" height="544px" viewBox="0 0 577 544" version="1.1" xmlns="http://www.w3.org/2000/svg" xmlns:xlink="http://www.w3.org/1999/xlink">
    <title>Update timings</title>
    <g id="Mockups" stroke="none" stroke-width="1" fill="none" fill-rule="evenodd">
        <g id="Homepage-desktop" transform="translate(-1072.000000, -2946.000000)" fill-rule="nonzero">
            <g id="Features-section" transform="translate(190.000000, 1740.000000)">
                <g id="Section" transform="translate(801.000000, 848.000000)">
                    <g id="Update-timings" transform="translate(68.002045, 358.528479)">
                        <g id="Note2" transform="translate(296.997955, 0.000000)">
                            <path d="M104.418726,139.471521 L13.2347976,139.471521 C9.1897193,139.483677 5.3649601,137.636112 2.86825172,134.46386 L2.86825172,134.46386 C0.326089871,131.261725 -0.592221806,127.069888 0.379412571,123.103001 C8.78333675,88.0176665 8.78314481,51.4532101 0.378852259,16.3679629 C-0.592048024,12.4012004 0.326310806,8.2098118 2.86796585,5.00765154 C5.36467291,1.83524339 9.18959783,-0.0123465068 13.2347976,0 L104.418726,0 C110.920378,0.0186850419 116.454238,4.72263631 117.499162,11.1188357 C123.500279,49.9678828 123.500279,89.5036058 117.499162,128.352653 C116.454253,134.748866 110.920389,139.452835 104.418726,139.471521 Z" id="Path" fill="#FEF7EA"></path>
                            <path d="M84.5204078,39.7214941 L36.6708708,39.7214941 C32.8835216,39.7173733 29.8142996,36.6581776 29.8101654,32.8832005 L29.8101654,30.2108866 C29.8142996,26.4359095 32.8835216,23.3767137 36.6708708,23.372593 L84.5204078,23.372593 C88.3077525,23.37672 91.3769676,26.435914 91.3811018,30.2108866 L91.3811018,32.8832574 C91.3769424,36.6582104 88.3077329,39.7173734 84.5204078,39.7214941 Z" id="Path" fill="#EE7B39"></path>
                            <path d="M84.5204078,73.4877521 L36.6708708,73.4877521 C32.8835234,73.4836377 29.8142996,70.4244451 29.8101654,66.6494699 L29.8101654,63.9771447 C29.8142996,60.2021694 32.8835234,57.1429769 36.6708708,57.1388625 L84.5204078,57.1388625 C88.3077507,57.1429832 91.3769676,60.2021739 91.3811018,63.9771447 L91.3811018,66.6494699 C91.3769676,70.4244407 88.3077507,73.4836314 84.5204078,73.4877521 L84.5204078,73.4877521 Z" id="Path" fill="#EE7B39"></path>
                            <path d="M84.5204078,107.254022 L36.6708708,107.254022 C32.8835216,107.249901 29.8142996,104.190705 29.8101654,100.415728 L29.8101654,97.7434141 C29.8142996,93.9684388 32.8835234,90.9092463 36.6708708,90.9051319 L84.5204078,90.9051319 C88.3077507,90.9092526 91.3769676,93.9684433 91.3811018,97.7434141 L91.3811018,100.415728 C91.3769739,104.190703 88.3077552,107.249901 84.5204078,107.254022 L84.5204078,107.254022 Z" id="Path" fill="#EE7B39"></path>
                        </g>
                        <g id="Note1" transform="translate(467.997955, 85.865440)">
                            <path d="M104.418726,139.606081 L13.2347976,139.606081 C9.1897193,139.618249 5.3649601,137.768902 2.86825172,134.593589 L2.86825172,134.593589 C0.326089871,131.388365 -0.592221806,127.192483 0.379412571,123.22177 C8.78333675,88.1025848 8.78314481,51.5028515 0.378852259,16.3837545 C-0.592048024,12.4131649 0.326310806,8.21773252 2.86796585,5.01248286 C5.36467291,1.83701401 9.18959783,-0.0123584186 13.2347976,0 L104.418726,0 C110.920378,0.0187030689 116.454238,4.72719265 117.499162,11.129563 C123.500279,50.0160912 123.500279,89.5899577 117.499162,128.476486 C116.454253,134.87887 110.920389,139.587377 104.418726,139.606081 Z" id="Path" fill="#FEF7EA"></path>
                            <path d="M84.5204078,56.8727006 L36.6708708,56.8727006 C32.8835216,56.8685759 29.8142996,53.8064286 29.8101654,50.0278095 L29.8101654,47.3529175 C29.8142996,43.5742983 32.8835216,40.512151 36.6708708,40.5080263 L84.5204078,40.5080263 C88.3077525,40.5121573 91.3769676,43.5743028 91.3811018,47.3529175 L91.3811018,50.0278665 C91.3769424,53.8064616 88.3077329,56.868576 84.5204078,56.8727006 L84.5204078,56.8727006 Z" id="Path" fill="#EE7B39"></path>
                            <path d="M84.5204078,90.6715359 L36.6708708,90.6715359 C32.8835234,90.6674175 29.8142996,87.6052735 29.8101654,83.8266562 L29.8101654,81.1517527 C29.8142996,77.3731354 32.8835234,74.3109914 36.6708708,74.306873 L84.5204078,74.306873 C88.3077507,74.3109977 91.3769676,77.3731399 91.3811018,81.1517527 L91.3811018,83.8266562 C91.3769676,87.605269 88.3077507,90.6674112 84.5204078,90.6715359 L84.5204078,90.6715359 Z" id="Path" fill="#EE7B39"></path>
                        </g>
                        <g id="Note-holder" transform="translate(286.997955, 183.471521)">
                            <path d="M104.868175,141 L13.7906478,141 C9.57530181,141.012619 5.58958583,139.079648 2.98780906,135.760836 C0.339985633,132.412569 -0.616638884,128.029448 0.395104934,123.881424 C8.76816181,88.7867666 8.76797009,52.2126433 0.394545275,17.1180734 C-0.616675043,12.9701582 0.340025171,8.58737766 2.98754637,5.2391644 C5.58940146,1.9202938 9.57523038,-0.0126806798 13.7906706,0 L104.868198,0 C111.643483,0.0202852527 117.409679,4.94220482 118.497724,11.6339773 C124.500759,50.6481284 124.500759,90.3518836 118.497724,129.366035 C117.409668,136.057809 111.643464,140.979723 104.868175,141 L104.868175,141 Z" id="Path" fill="#FEF7EA"></path>
                            <path d="M72.1479062,66.5996982 L63.0106229,66.5996982 L63.0106229,57.4564141 C63.0106229,55.562778 61.476535,54.0276826 59.5841417,54.0276826 C57.6917483,54.0276826 56.1576604,55.562778 56.1576604,57.4564141 L56.1576604,66.5996982 L47.0203772,66.5996982 C45.1279838,66.5996982 43.5938959,68.1347936 43.5938959,70.0284297 C43.5938959,71.9220658 45.1279838,73.4571612 47.0203772,73.4571612 L56.1576604,73.4571612 L56.1576604,82.6004453 C56.1576604,84.4940815 57.6917483,86.0291769 59.5841417,86.0291769 C61.476535,86.0291769 63.0106229,84.4940815 63.0106229,82.6004453 L63.0106229,73.4571612 L72.1479062,73.4571612 C74.0402995,73.4571612 75.5743874,71.9220658 75.5743874,70.0284297 C75.5743874,68.1347936 74.0402995,66.5996982 72.1479062,66.5996982 L72.1479062,66.5996982 Z" id="Path" fill="#EE7B39"></path>
                        </g>
                        <g id="Human" transform="translate(0.000000, 92.469638)">
                            <polygon id="Path" fill="#A0616A" points="136.921786 437.450857 150.910248 437.450857 155.283639 383.530175 136.919504 383.530175"></polygon>
                            <path d="M133.354158,432.886903 L160.901844,432.885763 L160.902985,432.885763 C165.559041,432.885763 170.024438,434.734001 173.316792,438.02422 C176.609147,441.314438 178.458698,445.776979 178.458698,450.430087 L178.458698,451.000218 L133.355025,451.001883 L133.354158,432.886903 Z" id="Path" fill="#000000"></path>
                            <polygon id="Path" fill="#A0616A" points="61.6168523 437.450857 75.6053142 437.450857 82.260673 383.530175 61.6145703 383.530175"></polygon>
                            <path d="M58.049224,432.886903 L85.5969098,432.885763 L85.5980508,432.885763 C90.254107,432.885763 94.7195039,434.734001 98.0118585,438.02422 C101.304213,441.314438 103.153764,445.776979 103.153764,450.430087 L103.153764,451.000218 L58.0500911,451.001883 L58.049224,432.886903 Z" id="Path" fill="#000000"></path>
                            <path d="M64.0987432,420.41713 C62.6718231,420.41713 61.2971998,419.880258 60.2479227,418.913855 L60.2479227,418.913855 C59.1098159,417.876178 58.4441024,416.419731 58.4044123,414.880625 L52.7946055,213.951306 L132.448,233.851319 L157.024278,307.532367 C160.193494,317.010963 161.565383,326.997262 161.069534,336.978717 L158.017904,408.400952 C157.87334,411.440361 155.364164,413.829662 152.319397,413.827217 L138.959617,413.827217 C136.108884,413.815585 133.699991,411.711998 133.306236,408.890352 L123.757457,330.050854 C122.923062,323.900467 120.770172,318.002514 117.445842,312.759861 L98.6544202,283.02621 C98.3969592,282.619311 97.9115441,282.41782 97.4413831,282.522691 C96.9712222,282.627561 96.6176041,283.016201 96.5577026,283.493889 L81.8109656,414.724728 C81.4841341,417.472433 79.2278854,419.587495 76.4631744,419.737876 L64.4235128,420.407107 C64.3151878,420.41323 64.2071138,420.41713 64.0987432,420.41713 Z" id="Path" fill="#000000"></path>
                            <ellipse id="Oval" fill="#A0616A" cx="119.192803" cy="55.8567737" rx="28.0237385" ry="28.0059949"></ellipse>
                            <path d="M132.066398,242.023003 C131.584171,242.023003 131.10393,241.961236 130.636825,241.841496 L130.635946,241.841496 L51.6065218,221.590727 C48.6726497,220.839899 46.8376303,217.928322 47.4272691,214.959616 L65.5770475,117.249566 C67.872431,105.784576 75.655997,96.1774858 86.3997174,91.5485868 C96.8726655,86.9163452 108.966649,87.8036923 118.650345,93.9148459 C119.756791,94.604704 120.871304,95.3568775 121.962153,96.1508301 C130.864692,102.713878 136.176618,113.065804 136.314418,124.120645 L137.758119,236.240965 C137.777215,237.764019 137.186931,239.231731 136.118106,240.317611 C135.049281,241.40349 133.590555,242.017481 132.066421,242.023003 L132.066398,242.023003 Z" id="Path" fill="#FEF7EA"></path>
                            <path d="M59.7380398,243.172067 C57.8296055,240.365393 57.2631647,236.85809 58.1911361,233.593908 C59.1191076,230.329726 61.446167,227.643972 64.5461458,226.259333 L61.0310141,185.663974 L79.6587164,195.753555 L80.140919,232.756748 C82.1678487,238.235675 79.7739122,244.363765 74.568596,247.020994 C69.3632799,249.678223 62.9919104,248.024678 59.7380741,243.172067 L59.7380398,243.172067 Z" id="Path" fill="#A0616A"></path>
                            <path d="M66.3929764,220.89031 C65.8673659,220.89031 65.3438889,220.823494 64.8347006,220.693215 C62.6035436,220.124551 60.8637449,218.379546 60.302804,216.147757 L51.1484738,179.791901 C47.9492813,167.094275 49.4743539,153.667571 55.4399765,142.009613 L74.6185914,104.515719 C77.140978,95.1758274 86.6926064,89.5836379 96.0783297,91.951692 C100.62,93.097796 104.513323,96.0136578 106.88898,100.048209 C109.31366,104.140695 109.993553,109.034412 108.776236,113.632246 L81.4753566,174.642914 L81.7996014,211.171919 C81.8168204,213.811589 80.1836516,216.181415 77.7097677,217.106512 L68.5735449,220.497227 C67.8759014,220.756944 67.1374526,220.89031 66.3929764,220.89031 Z" id="Path" fill="#FEF7EA"></path>
                            <path d="M197.076428,228.239876 C193.702877,227.854539 190.673384,225.995664 188.803129,223.163439 C186.932873,220.331213 186.413972,216.816572 187.386053,213.565236 L154.30504,189.746019 L174.108572,182.218218 L202.48678,205.991449 C207.964284,208.03025 211.050239,213.841098 209.669905,219.517265 C208.289571,225.193432 202.879252,228.940768 197.076394,228.239876 L197.076428,228.239876 Z" id="Path" fill="#A0616A"></path>
                            <path d="M179.758724,210.846214 C178.783378,210.846214 177.821517,210.618487 176.94888,210.183095 L143.404925,193.401549 C131.688562,187.540957 122.500588,177.627535 117.549501,165.504677 L101.62447,126.518671 C96.1872015,118.514724 98.1766309,107.632122 106.094525,102.066518 C109.9355,99.3674654 114.699996,98.3225754 119.318916,99.1663084 C123.9918,100.006023 128.133901,102.680128 130.820957,106.59193 L159.282879,167.070883 L187.197939,190.654454 C189.211464,192.363091 189.943557,195.146198 189.031146,197.623526 L185.642732,206.755082 C185.200347,207.952646 184.401173,208.985858 183.35296,209.715417 C182.299168,210.451602 181.044443,210.846214 179.758701,210.846214 L179.758724,210.846214 Z" id="Path" fill="#FEF7EA"></path>
                            <polygon id="Path" fill="#000000" opacity="0.2" points="80.2194529 212.000649 80.8549809 174.452981 100.757162 134.462873 84.7833883 175.512284"></polygon>
                            <path d="M10.7584769,92.7093651 C13.5975727,98.2086104 18.2523744,102.557533 23.9333533,105.018486 C26.2003385,106.050984 28.584066,106.805236 31.0324408,107.26476 C31.7242398,104.521972 32.8317859,101.901178 34.3166548,99.4933017 C33.8221832,102.2074 33.8225132,104.988576 34.317629,107.702792 C38.0476881,108.008262 41.8005548,107.543125 45.3426079,106.336336 C52.3957987,103.939741 57.9056612,98.3610325 60.2117537,91.281398 C62.6748389,83.0875257 60.0197506,74.3352632 59.8096666,65.7821683 C59.5932844,57.2281489 63.6563436,46.99773 72.1528034,45.9403454 C78.6233744,45.1337891 77.8232725,45.7605218 82.473285,50.3295675 C75.9705013,57.5490981 91.8293046,89.5304502 100.336801,88.1184146 C105.146766,87.3200767 108.685906,83.5039193 109.637298,83.6363625 C114.510042,95.5599825 99.8583661,112.468084 111.481355,118.020646 L110.618849,116.880005 C104.534163,106.835196 122.533094,89.8731447 116.448374,79.82829 C114.752007,77.0182945 112.988186,73.7239196 114.037179,70.6157793 C115.032816,67.6606138 120.076102,66.7259251 121.140524,69.4158304 C119.410009,63.2505913 124.238162,56.0150007 130.651809,55.3865962 C136.349685,54.8254408 136.021053,56.4485215 141.45391,57.9300917 C142.147889,55.5911861 143.148017,53.354229 144.428338,51.2772762 C143.995152,53.6469333 143.941956,56.0704675 144.270745,58.4570106 C146.23026,58.6908795 148.21207,58.2718473 149.908646,57.2649383 C154.925307,54.2597349 155.073567,46.5010639 151.626607,41.7785527 C148.173327,37.0551741 142.390016,34.7224972 136.810387,32.9573087 C136.757701,21.1649373 105.007891,15.5158925 99.1699541,26.4788498 C98.568198,17.6016387 88.3856974,11.6205799 79.614731,13.1275246 C70.8437646,14.6344692 63.9250677,21.662519 59.7072954,29.4965593 C55.4904124,37.3243053 53.3973961,46.0895969 50.3105209,54.4276645 C47.2236457,62.7657321 42.8107012,71.079685 35.4172559,76.0261972 C28.0247454,80.9664038 17.037697,81.4139066 10.8640372,75.0088512 C8.00937057,80.5546313 7.97016528,87.1286334 10.7584769,92.7093651 L10.7584769,92.7093651 Z" id="Path" fill="#000000" transform="translate(81.337535, 65.457904) rotate(-11.000000) translate(-81.337535, -65.457904) "></path>
                        </g>
                        <g id="Accessories" transform="translate(168.997955, 234.471521)">
                            <path d="M92.2332424,164.997098 L8.1367338,130.059511 C4.4013697,128.520915 1.58418197,125.346049 0.501081655,121.454413 L0.501081655,121.454413 C-0.612447641,117.517703 0.15215162,113.28749 2.57332362,109.989553 C23.8124225,80.748131 37.8692741,46.9181319 43.6065786,11.2366439 C44.2361405,7.19453306 46.6944795,3.66847435 50.2696404,1.67964337 C53.7919043,-0.298890444 58.0298316,-0.542767326 61.7558432,1.01865533 L145.852398,35.9562424 C151.841528,38.464622 155.136835,44.937103 153.641549,51.2553111 C144.240886,89.4983402 129.041568,126.077334 108.571571,159.721652 C105.148887,165.239162 98.2367225,167.471015 92.2332424,164.997098 Z" id="Path" fill="#FEF7EA"></path>
                            <path d="M103.904612,85.1188097 L59.7741977,66.7850016 C56.2828124,65.3300431 54.628247,61.3236461 56.0757071,57.8294038 L57.1030688,55.3569449 C58.5581481,51.8658689 62.5649014,50.2114452 66.0594563,51.6587737 L110.189871,69.9925818 C113.681252,71.447545 115.335815,75.4539373 113.888362,78.9481796 L112.861,81.4206385 C111.405921,84.9117145 107.399167,86.5661382 103.904612,85.1188097 Z" id="Path" fill="#EE7B39"></path>
                            <path d="M90.9233335,116.359824 L46.7929187,98.0260161 C43.3015334,96.5710577 41.646968,92.5646606 43.0944281,89.0704183 L44.1217784,86.5979594 C45.5768673,83.1068867 49.5836192,81.4524657 53.0781773,82.8997882 L97.2086263,101.233596 C100.70001,102.68855 102.35458,106.69494 100.907128,110.189183 L99.8797666,112.661653 C98.4246872,116.152754 94.4179009,117.807183 90.9233335,116.359824 Z" id="Path" fill="#EE7B39"></path>
                        </g>
                    </g>
                </g>
            </g>
        </g>
    </g>
</svg>